G04 Layer_Physical_Order=1*
G04 Layer_Color=255*
%FSLAX25Y25*%
%MOIN*%
G70*
G01*
G75*
%ADD10R,0.04331X0.06693*%
%ADD11C,0.01968*%
%ADD12C,0.01000*%
%ADD13C,0.15748*%
%ADD14C,0.06000*%
%ADD15R,0.06000X0.06000*%
%ADD16C,0.23622*%
%ADD17C,0.05000*%
D10*
X293785Y343000D02*
D03*
X304415D02*
D03*
X333685Y335300D02*
D03*
X344315D02*
D03*
X293898Y423228D02*
D03*
X304528D02*
D03*
X333268Y417323D02*
D03*
X343898D02*
D03*
X293898Y409449D02*
D03*
X304528D02*
D03*
X333268Y431102D02*
D03*
X343898D02*
D03*
X293898Y437008D02*
D03*
X304528D02*
D03*
X333268Y403543D02*
D03*
X343898D02*
D03*
X293885Y395500D02*
D03*
X304515D02*
D03*
X333070Y389600D02*
D03*
X343700D02*
D03*
X293885Y381600D02*
D03*
X304515D02*
D03*
X333185Y376600D02*
D03*
X343815D02*
D03*
X293785Y368600D02*
D03*
X304415D02*
D03*
X333385Y363300D02*
D03*
X344015D02*
D03*
X333285Y349600D02*
D03*
X343915D02*
D03*
X293685Y354600D02*
D03*
X304315D02*
D03*
X330185Y733400D02*
D03*
X340815D02*
D03*
X294085Y740000D02*
D03*
X304715D02*
D03*
X294085Y726400D02*
D03*
X304715D02*
D03*
X329985Y719400D02*
D03*
X340615D02*
D03*
X294185Y711500D02*
D03*
X304815D02*
D03*
X329985Y704500D02*
D03*
X340615D02*
D03*
X294185Y696700D02*
D03*
X304815D02*
D03*
X330185Y690100D02*
D03*
X340815D02*
D03*
X294185Y682000D02*
D03*
X304815D02*
D03*
X329870Y674800D02*
D03*
X340500D02*
D03*
X294285Y667200D02*
D03*
X304915D02*
D03*
X329985Y659600D02*
D03*
X340615D02*
D03*
X294285Y652500D02*
D03*
X304915D02*
D03*
X329870Y644300D02*
D03*
X340500D02*
D03*
X294385Y638900D02*
D03*
X305015D02*
D03*
X329685Y629400D02*
D03*
X340315D02*
D03*
X294385Y624200D02*
D03*
X305015D02*
D03*
X329485Y614600D02*
D03*
X340115D02*
D03*
X294485Y609400D02*
D03*
X305115D02*
D03*
X329485Y600300D02*
D03*
X340115D02*
D03*
X294485Y594200D02*
D03*
X305115D02*
D03*
X329485Y586100D02*
D03*
X340115D02*
D03*
X294285Y579400D02*
D03*
X304915D02*
D03*
X329285Y571900D02*
D03*
X339915D02*
D03*
X294385Y563900D02*
D03*
X305015D02*
D03*
X328885Y557200D02*
D03*
X339515D02*
D03*
X294385Y549500D02*
D03*
X305015D02*
D03*
X328885Y542400D02*
D03*
X339515D02*
D03*
X294500Y533800D02*
D03*
X305130D02*
D03*
X293185Y312600D02*
D03*
X303815D02*
D03*
X293385Y326600D02*
D03*
X304015D02*
D03*
X333585Y307300D02*
D03*
X344215D02*
D03*
X333585Y321100D02*
D03*
X344215D02*
D03*
D11*
X448527Y617056D02*
Y624542D01*
X420569Y652500D02*
X448527Y624542D01*
X262205Y427953D02*
Y433465D01*
X265748Y437008D01*
X293898D01*
X293526Y423600D02*
X293898Y423228D01*
X274016Y419291D02*
X285409D01*
X288400Y416300D01*
X332245D01*
X333268Y417323D01*
X262205Y393307D02*
X262907D01*
X274016D02*
X291692D01*
X293885Y395500D01*
X262205Y384646D02*
X262746D01*
X332470Y389000D02*
X333070Y389600D01*
X274016Y384646D02*
X290839D01*
X293885Y381600D01*
X304515D02*
X325300D01*
X262205Y375984D02*
X264484D01*
X331785Y375200D02*
X333185Y376600D01*
X274016Y375984D02*
X280816D01*
X288200Y368600D01*
X293785D01*
X262205Y367323D02*
X264423D01*
X331985Y361900D02*
X333385Y363300D01*
X274016Y367323D02*
X275677D01*
X288400Y354600D01*
X293685D01*
X262205Y358661D02*
X263761D01*
X304415Y340900D02*
X317500D01*
X319000Y342400D01*
X348400D01*
X462038Y337556D02*
X468985Y330609D01*
X457385Y257500D02*
X468985Y269100D01*
Y330609D01*
X343915Y349600D02*
X352500D01*
X444901Y271600D02*
X450227Y276926D01*
X304315Y354600D02*
X327000D01*
X328900Y356500D01*
X357300D01*
X450227Y285587D02*
X456085Y279729D01*
X451385Y264100D02*
X456085Y268800D01*
Y279729D01*
X344015Y363300D02*
X362100D01*
X431251Y294149D01*
X304415Y368600D02*
X327200D01*
X328500Y369900D01*
X369800D01*
X343815Y376600D02*
X375300D01*
X437300Y314600D01*
X447098Y314700D02*
X450227Y311572D01*
X325300Y381600D02*
X327000Y383300D01*
X382800D01*
X446821Y332100D02*
X450027Y328894D01*
X462038Y414210D02*
X464075D01*
X469685Y408600D01*
Y357014D02*
Y408600D01*
X450227Y337556D02*
X469685Y357014D01*
X274016Y725916D02*
X288100Y740000D01*
X294085D01*
X287100Y726400D02*
X294085D01*
X262205Y671654D02*
X263053D01*
X329485Y704000D02*
X329985Y704500D01*
X290700Y696700D02*
X294185D01*
X284800Y711500D02*
X294185D01*
X274016Y688976D02*
X279400Y694361D01*
Y718700D01*
X287100Y726400D01*
X286100Y692100D02*
X290700Y696700D01*
X274016Y671654D02*
X276354D01*
X286100Y681400D01*
Y692100D01*
X262205Y662992D02*
X262992D01*
X274016Y697638D02*
Y725916D01*
Y662992D02*
X293024Y682000D01*
X294185D01*
X274016Y680315D02*
X282600Y688899D01*
Y709300D01*
X284800Y711500D01*
X274016Y654331D02*
X275331D01*
X288200Y667200D01*
X294285D01*
X274016Y645669D02*
X277869D01*
X284700Y652500D01*
X294285D01*
X274016Y637008D02*
X279908D01*
X281800Y638900D01*
X294385D01*
X274016Y619685D02*
X279185D01*
X283700Y624200D01*
X294385D01*
X274016Y611024D02*
X279876D01*
X281500Y609400D01*
X294485D01*
X274016Y602362D02*
X277738D01*
X285900Y594200D01*
X294485D01*
X274016Y593701D02*
X277199D01*
X286700Y584200D01*
Y581700D02*
Y584200D01*
Y581700D02*
X289000Y579400D01*
X294285D01*
X274016Y585039D02*
X276061D01*
X285900Y575200D01*
Y566200D02*
Y575200D01*
Y566200D02*
X288200Y563900D01*
X294385D01*
X274016Y576378D02*
X277622D01*
X282700Y571300D01*
Y554100D02*
Y571300D01*
Y554100D02*
X287300Y549500D01*
X294385D01*
X274016Y546184D02*
Y567717D01*
Y546184D02*
X286400Y533800D01*
X294500D01*
X322900Y733400D02*
X330185D01*
X323400Y704000D02*
X329485D01*
X323200Y704200D02*
X323400Y704000D01*
X323000Y690100D02*
X330185D01*
X322600Y689700D02*
X323000Y690100D01*
X323100Y674800D02*
X329870D01*
X323000Y674700D02*
X323100Y674800D01*
X323000Y659600D02*
X329985D01*
X322800Y659400D02*
X323000Y659600D01*
X322900Y644300D02*
X329870D01*
X322800Y644400D02*
X322900Y644300D01*
X321600Y542400D02*
X328885D01*
X321500Y542500D02*
X321600Y542400D01*
X322500Y571900D02*
X329285D01*
X322400Y571800D02*
X322500Y571900D01*
X323000Y586100D02*
X329485D01*
X322900Y586000D02*
X323000Y586100D01*
X322700Y600300D02*
X329485D01*
X322600Y600400D02*
X322700Y600300D01*
X322800Y614600D02*
X329485D01*
X323300Y629400D02*
X329685D01*
X323000Y629100D02*
X323300Y629400D01*
X288672Y423228D02*
X293898D01*
X274016Y427953D02*
X277165Y431102D01*
X333268D01*
X286400Y425500D02*
X288672Y423228D01*
X286049Y409449D02*
X293898D01*
X285800Y409200D02*
X286049Y409449D01*
X325557Y403543D02*
X333268D01*
X325500Y403600D02*
X325557Y403543D01*
X326200Y389000D02*
X332470D01*
X325900Y389300D02*
X326200Y389000D01*
X324700Y376600D02*
X333185D01*
X274016Y358661D02*
X291777Y340900D01*
X293785D01*
X274016Y341339D02*
X276661D01*
X288300Y326600D02*
X293385D01*
X288000Y326900D02*
X288300Y326600D01*
X274016Y330784D02*
X284800Y320000D01*
X274016Y330784D02*
Y332677D01*
X271300Y312600D02*
X293185D01*
X262205Y321695D02*
X271300Y312600D01*
X262205Y321695D02*
Y332677D01*
X426783Y740100D02*
X447727Y719156D01*
X414085Y733500D02*
X437090Y710495D01*
X447727D01*
X412285Y726500D02*
X436952Y701833D01*
X447727D01*
X410285Y719500D02*
X436613Y693172D01*
X447727D01*
X410385Y711600D02*
X437475Y684510D01*
X447727D01*
X439436Y675849D02*
X447727D01*
X410685Y704600D02*
X439436Y675849D01*
X410385Y696800D02*
X439998Y667187D01*
X447727D01*
X408785Y690200D02*
X440459Y658526D01*
X447727D01*
X440085Y651400D02*
X462985D01*
X465485Y653900D01*
Y713209D01*
X459538Y719156D02*
X465485Y713209D01*
X406385Y674900D02*
X410885Y670400D01*
X424285Y659700D02*
X437885Y646100D01*
X465985D01*
X471285Y651400D01*
Y692400D01*
X471085Y692600D02*
X471285Y692400D01*
X448527Y624742D02*
X464485Y640700D01*
X305015Y638900D02*
X312100D01*
X314200Y636800D01*
X423685Y644400D02*
X441585Y626500D01*
Y611800D02*
Y626500D01*
Y611800D02*
X444990Y608394D01*
X448527D01*
X424285Y636900D02*
X436585Y624600D01*
Y606500D02*
Y624600D01*
Y606500D02*
X443352Y599733D01*
X448527D01*
X425185Y629500D02*
X431185Y623500D01*
Y602800D02*
Y623500D01*
Y602800D02*
X442913Y591072D01*
X448527D01*
X305015Y624200D02*
X311700D01*
X313600Y622300D01*
X421785Y622400D02*
X427085Y617100D01*
Y595900D02*
Y617100D01*
Y595900D02*
X440575Y582410D01*
X448527D01*
X418785Y614700D02*
X421485Y612000D01*
Y587800D02*
Y612000D01*
Y587800D02*
X435536Y573749D01*
X448527D01*
X305115Y609400D02*
X314500D01*
X316300Y607600D01*
X409485Y607700D02*
X414185Y603000D01*
Y580600D02*
Y603000D01*
Y580600D02*
X429698Y565087D01*
X448527D01*
X406685Y576300D02*
X426559Y556426D01*
X448527D01*
X305115Y594200D02*
X315800D01*
X316600Y593400D01*
X396085Y586200D02*
X398285Y584000D01*
X406685Y576300D02*
Y597200D01*
X403485Y600400D02*
X406685Y597200D01*
X392785Y579500D02*
X422585Y549700D01*
X464785D01*
X467085Y552000D01*
Y595900D01*
X463252Y599733D02*
X467085Y595900D01*
X460338Y599733D02*
X463252D01*
X393585Y572000D02*
X420285Y545300D01*
X467585D01*
X470485Y548200D01*
Y588800D01*
X473385Y591700D01*
X395685Y564000D02*
X419185Y540500D01*
X484785D02*
X492885Y548600D01*
Y582300D01*
X451485Y450114D02*
Y540500D01*
X450227Y448856D02*
X451485Y450114D01*
X419185Y540500D02*
X451485D01*
X484785D01*
X305015Y549500D02*
X342800D01*
X392900Y499400D01*
Y448500D02*
Y499400D01*
X339515Y557200D02*
X343700D01*
X399000Y501900D01*
Y449100D02*
Y501900D01*
X339515Y542400D02*
X341400D01*
X386800Y497000D01*
Y447800D02*
Y497000D01*
X443513Y422872D02*
X450227D01*
X392900Y448500D02*
X401200Y440200D01*
X441460Y440300D02*
X450227Y431533D01*
X386800Y447800D02*
X399700Y434900D01*
X305130Y533800D02*
X339800D01*
X381200Y492400D01*
Y445100D02*
Y492400D01*
Y445100D02*
X396200Y430100D01*
X429685Y430200D02*
X445675Y414210D01*
X450227D01*
X304528Y437008D02*
X310208D01*
X313600Y440400D01*
X377800D01*
X392500Y425700D01*
X427185Y425800D02*
X447436Y405549D01*
X450227D01*
X343898Y431102D02*
X380498D01*
X390100Y421500D01*
X445898Y396887D02*
X450227D01*
X304528Y423228D02*
X311328D01*
X312600Y424500D01*
X380100D01*
X387400Y417200D01*
X421185Y421600D02*
X445898Y396887D01*
X418085Y417300D02*
X447159Y388226D01*
X450227D01*
X343898Y417323D02*
X364877D01*
X369400Y412800D01*
X411485Y412900D02*
X414385Y410000D01*
X304528Y409449D02*
X317349D01*
X318200Y410300D01*
X362900D01*
X364800Y408400D01*
X405585Y408500D02*
X408385Y405700D01*
X304515Y395500D02*
X312400D01*
X313300Y396400D01*
X398542Y403643D02*
X422185Y380000D01*
X454985D01*
X399385Y396500D02*
X421485Y374400D01*
X460885D01*
X344315Y335300D02*
X346700D01*
X424500Y257500D01*
X344215Y321100D02*
X353100D01*
X422300Y251900D01*
X461185D02*
X473385Y264100D01*
Y317900D01*
X475885Y320400D01*
X304015Y326600D02*
X317300D01*
X329900Y314000D01*
X353800D01*
X420500Y247300D01*
X490185D02*
X493985Y251100D01*
Y322800D01*
X284800Y320000D02*
X314500D01*
X327200Y307300D01*
X333585D01*
X344215D02*
X353400D01*
X418400Y242300D01*
X493485D02*
X499385Y248200D01*
Y302000D01*
X499185Y302200D02*
X499385Y302000D01*
X303815Y312600D02*
X318315Y298100D01*
X355300D01*
X416000Y237400D01*
X497185D02*
X505785Y246000D01*
Y311200D01*
X401200Y440200D02*
X441360D01*
X441460Y440300D01*
X399700Y434900D02*
X431485D01*
X443513Y422872D01*
X396200Y430100D02*
X429585D01*
X429685Y430200D01*
X392500Y425700D02*
X427085D01*
X427185Y425800D01*
X390100Y421500D02*
X421085D01*
X421185Y421600D01*
X387400Y417200D02*
X417985D01*
X418085Y417300D01*
X369400Y412800D02*
X411385D01*
X411485Y412900D01*
X364800Y408400D02*
X405485D01*
X405585Y408500D01*
X343898Y403543D02*
X398442D01*
X398542Y403643D01*
X313300Y396400D02*
X399285D01*
X399385Y396500D01*
X382800Y383300D02*
X441500Y324600D01*
X343700Y389600D02*
X387800D01*
X445400Y332000D01*
X446900D01*
X437300Y314600D02*
X446998D01*
X447098Y314700D01*
X369800Y369900D02*
X432400Y307300D01*
X433900D01*
X357300Y356500D02*
X430800Y283000D01*
X441600D01*
X431251Y294149D02*
X450127D01*
X450227Y294249D01*
X430500Y271600D02*
X444901D01*
X352500Y349600D02*
X430500Y271600D01*
X426700Y264100D02*
X451385D01*
X348400Y342400D02*
X426700Y264100D01*
X424500Y257500D02*
X457385D01*
X422300Y251900D02*
X461185D01*
X420500Y247300D02*
X490185D01*
X418400Y242300D02*
X493485D01*
X416000Y237400D02*
X497185D01*
X304715Y740000D02*
X426683D01*
X426783Y740100D01*
X340815Y733400D02*
X413985D01*
X414085Y733500D01*
X304715Y726400D02*
X412185D01*
X412285Y726500D01*
X340615Y719400D02*
X410185D01*
X410285Y719500D01*
X304815Y711500D02*
X410285D01*
X410385Y711600D01*
X340615Y704500D02*
X410585D01*
X410685Y704600D01*
X304815Y696700D02*
X410285D01*
X410385Y696800D01*
X340815Y690100D02*
X408685D01*
X408785Y690200D01*
X304815Y682000D02*
X409485D01*
X440085Y651400D01*
X340500Y674800D02*
X406285D01*
X406385Y674900D01*
X304915Y667200D02*
X399285D01*
X399985Y667900D01*
X340615Y659600D02*
X424185D01*
X424285Y659700D01*
X304915Y652500D02*
X420569D01*
X340500Y644300D02*
X423585D01*
X423685Y644400D01*
X314200Y636800D02*
X424185D01*
X424285Y636900D01*
X340315Y629400D02*
X425085D01*
X425185Y629500D01*
X313600Y622300D02*
X421685D01*
X421785Y622400D01*
X340115Y614600D02*
X418685D01*
X418785Y614700D01*
X316300Y607600D02*
X409385D01*
X409485Y607700D01*
X340115Y600300D02*
X403385D01*
X403485Y600400D01*
X316600Y593400D02*
X397585D01*
X397685Y593500D01*
X340115Y586100D02*
X395985D01*
X396085Y586200D01*
X304915Y579400D02*
X392685D01*
X392785Y579500D01*
X339915Y571900D02*
X393485D01*
X393585Y572000D01*
X305015Y563900D02*
X395585D01*
X395685Y564000D01*
X274016Y350000D02*
X287216Y336800D01*
X332185D01*
X333685Y335300D01*
X276661Y341339D02*
X285100Y332900D01*
X321785D01*
X333585Y321100D01*
X242723Y367323D02*
X262205D01*
X444061Y444239D02*
X448105Y440195D01*
X450227D01*
X399000Y449100D02*
X403861Y444239D01*
X444061D01*
X321500Y557300D02*
X321600Y557200D01*
X328885D01*
X322500Y719200D02*
X322700Y719400D01*
X329985D01*
X332985Y349900D02*
X333285Y349600D01*
X325600Y349900D02*
X332985D01*
D12*
X242700Y367300D02*
X242723Y367323D01*
X525400Y787000D02*
X525500Y786900D01*
X196800Y787000D02*
X525400D01*
X525500Y196600D02*
Y786900D01*
X196800Y196500D02*
X525400D01*
X525500Y196600D01*
X196800Y196500D02*
Y787000D01*
D13*
X240158Y694882D02*
D03*
Y570472D02*
D03*
Y425197D02*
D03*
Y335433D02*
D03*
X484085Y446100D02*
D03*
Y390982D02*
D03*
Y334800D02*
D03*
Y279682D02*
D03*
X482385Y614300D02*
D03*
Y559182D02*
D03*
X481585Y716400D02*
D03*
Y661282D02*
D03*
D14*
X262205Y567717D02*
D03*
Y576378D02*
D03*
Y585039D02*
D03*
Y593701D02*
D03*
Y602362D02*
D03*
Y611024D02*
D03*
Y619685D02*
D03*
Y628346D02*
D03*
Y637008D02*
D03*
Y645669D02*
D03*
Y654331D02*
D03*
Y662992D02*
D03*
Y671654D02*
D03*
Y680315D02*
D03*
Y688976D02*
D03*
Y697638D02*
D03*
X274016D02*
D03*
Y688976D02*
D03*
Y680315D02*
D03*
Y671654D02*
D03*
Y662992D02*
D03*
Y654331D02*
D03*
Y645669D02*
D03*
Y637008D02*
D03*
Y628346D02*
D03*
Y619685D02*
D03*
Y611024D02*
D03*
Y602362D02*
D03*
Y593701D02*
D03*
Y585039D02*
D03*
Y576378D02*
D03*
Y341339D02*
D03*
Y350000D02*
D03*
Y358661D02*
D03*
Y367323D02*
D03*
Y375984D02*
D03*
Y384646D02*
D03*
Y393307D02*
D03*
Y401968D02*
D03*
Y410630D02*
D03*
Y419291D02*
D03*
Y427953D02*
D03*
X262205D02*
D03*
Y419291D02*
D03*
Y410630D02*
D03*
Y401968D02*
D03*
Y393307D02*
D03*
Y384646D02*
D03*
Y375984D02*
D03*
Y367323D02*
D03*
Y358661D02*
D03*
Y350000D02*
D03*
Y341339D02*
D03*
Y332677D02*
D03*
X450227Y440195D02*
D03*
Y431533D02*
D03*
Y422872D02*
D03*
Y414210D02*
D03*
Y405549D02*
D03*
Y396887D02*
D03*
Y388226D02*
D03*
X462038D02*
D03*
Y396887D02*
D03*
Y405549D02*
D03*
Y414210D02*
D03*
Y422872D02*
D03*
Y431533D02*
D03*
Y440195D02*
D03*
Y448856D02*
D03*
X450227Y328894D02*
D03*
Y320233D02*
D03*
Y311572D02*
D03*
Y302910D02*
D03*
Y294249D02*
D03*
Y285587D02*
D03*
Y276926D02*
D03*
X462038D02*
D03*
Y285587D02*
D03*
Y294249D02*
D03*
Y302910D02*
D03*
Y311572D02*
D03*
Y320233D02*
D03*
Y328894D02*
D03*
Y337556D02*
D03*
X448527Y608394D02*
D03*
Y599733D02*
D03*
Y591072D02*
D03*
Y582410D02*
D03*
Y573749D02*
D03*
Y565087D02*
D03*
Y556426D02*
D03*
X460338D02*
D03*
Y565087D02*
D03*
Y573749D02*
D03*
Y582410D02*
D03*
Y591072D02*
D03*
Y599733D02*
D03*
Y608394D02*
D03*
Y617056D02*
D03*
X447727Y710495D02*
D03*
Y701833D02*
D03*
Y693172D02*
D03*
Y684510D02*
D03*
Y675849D02*
D03*
Y667187D02*
D03*
Y658526D02*
D03*
X459538D02*
D03*
Y667187D02*
D03*
Y675849D02*
D03*
Y684510D02*
D03*
Y693172D02*
D03*
Y701833D02*
D03*
Y710495D02*
D03*
Y719156D02*
D03*
D15*
X274016Y567717D02*
D03*
Y332677D02*
D03*
X450227Y448856D02*
D03*
Y337556D02*
D03*
X448527Y617056D02*
D03*
X447727Y719156D02*
D03*
D16*
X213200Y770900D02*
D03*
X509800Y771600D02*
D03*
X508800Y500400D02*
D03*
X212400Y496400D02*
D03*
X511100Y213500D02*
D03*
X212400D02*
D03*
D17*
X322900Y733400D02*
D03*
X323200Y704200D02*
D03*
X322600Y689700D02*
D03*
X323000Y674700D02*
D03*
X322800Y659400D02*
D03*
Y644400D02*
D03*
X321500Y542500D02*
D03*
X322400Y571800D02*
D03*
X322900Y586000D02*
D03*
X322600Y600400D02*
D03*
X322800Y614600D02*
D03*
X323000Y629100D02*
D03*
X286400Y425500D02*
D03*
X285800Y409200D02*
D03*
X325500Y403600D02*
D03*
X325900Y389300D02*
D03*
X324700Y376600D02*
D03*
X288000Y326900D02*
D03*
X410885Y670400D02*
D03*
X399985Y667900D02*
D03*
X471085Y692600D02*
D03*
X464485Y640700D02*
D03*
X397685Y593500D02*
D03*
X398285Y584000D02*
D03*
X473385Y591700D02*
D03*
X492885Y582300D02*
D03*
X414385Y410000D02*
D03*
X408385Y405700D02*
D03*
X454985Y380000D02*
D03*
X460885Y374400D02*
D03*
X475885Y320400D02*
D03*
X493985Y322800D02*
D03*
X499185Y302200D02*
D03*
X505785Y311200D02*
D03*
X441500Y324600D02*
D03*
X433900Y307300D02*
D03*
X441600Y283000D02*
D03*
X242700Y367300D02*
D03*
X335500Y363100D02*
D03*
X321500Y557300D02*
D03*
X322500Y719200D02*
D03*
X325600Y349900D02*
D03*
M02*
