M48
;Layer_Color=9474304
;FILE_FORMAT=2:5
INCH
;TYPE=PLATED
T1F00S00C0.02800
T2F00S00C0.04724
T3F00S00C0.04724
T4F00S00C0.13780
T5F00S00C0.16535
%
T01
X0499185Y0302200
X0505785Y0311200
X0433900Y0307300
X0441600Y0283000
X0288000Y0326900
X0285800Y0409200
X0286400Y0425500
X0242700Y0367300
X0324700Y0376600
X0325900Y0389300
X0325500Y0403600
X0335500Y0363100
X0325600Y0349900
X0408385Y0405700
X0414385Y0410000
X0454985Y0380000
X0460885Y0374400
X0441500Y0324600
X0475885Y0320400
X0493985Y0322800
X0492885Y0582300
X0473385Y0591700
X0397685Y0593500
X0398285Y0584000
X0322900Y0586000
X0322400Y0571800
X0321500Y0557300
Y0542500
X0322600Y0600400
X0322800Y0614600
X0323000Y0629100
X0322800Y0644400
Y0659400
X0323000Y0674700
X0322600Y0689700
X0323200Y0704200
X0322500Y0719200
X0322900Y0733400
X0399985Y0667900
X0410885Y0670400
X0464485Y0640700
X0471085Y0692600
T02
X0262205Y0332677
Y0341339
X0274016
Y0332677
X0450227Y0328894
Y0337556
X0462038
Y0328894
Y0440195
Y0448856
X0450227
Y0440195
X0448527Y0608394
Y0617056
X0460338
Y0608394
X0274016Y0576378
Y0567717
X0262205
Y0576378
X0447727Y0710495
Y0719156
X0459538
Y0710495
T03
X0450227Y0276926
Y0285587
Y0294249
Y0302910
Y0311572
X0462038
Y0302910
Y0294249
Y0285587
Y0276926
X0274016Y0350000
Y0358661
Y0367323
Y0375984
Y0384646
Y0393307
Y0401968
Y0410630
Y0419291
Y0427953
X0262205
Y0419291
Y0410630
Y0401968
Y0393307
Y0384646
Y0375984
Y0367323
Y0358661
Y0350000
X0450227Y0320233
X0462038
Y0388226
Y0396887
Y0405549
Y0414210
Y0422872
Y0431533
X0450227
Y0422872
Y0414210
Y0405549
Y0396887
Y0388226
X0448527Y0556426
Y0565087
Y0573749
Y0582410
Y0591072
Y0599733
X0460338
Y0591072
Y0582410
Y0573749
Y0565087
Y0556426
X0274016Y0585039
Y0593701
Y0602362
Y0611024
Y0619685
X0262205
Y0611024
Y0602362
Y0593701
Y0585039
Y0628346
Y0637008
Y0645669
Y0654331
Y0662992
Y0671654
Y0680315
Y0688976
Y0697638
X0274016
Y0688976
Y0680315
Y0671654
Y0662992
Y0654331
Y0645669
Y0637008
Y0628346
X0447727Y0658526
Y0667187
Y0675849
Y0684510
Y0693172
Y0701833
X0459538
Y0693172
Y0684510
Y0675849
Y0667187
Y0658526
T04
X0484085Y0279682
X0240158Y0335433
Y0425197
X0484085Y0446100
Y0390982
Y0334800
X0482385Y0559182
Y0614300
X0240158Y0570472
Y0694882
X0481585Y0716400
Y0661282
T05
X0511100Y0213500
X0212400
X0508800Y0500400
X0212400Y0496400
X0213200Y0770900
X0509800Y0771600
M30
